<svg width="239" height="100" viewBox="0 0 239 100" fill="none" xmlns="http://www.w3.org/2000/svg">
<g clip-path="url(#clip0_1120_17457)">
<path fill-rule="evenodd" clip-rule="evenodd" d="M40.9999 90.9999C63.6437 90.9999 81.9999 72.6436 81.9999 50C81.9999 27.3564 63.6435 8.99999 40.9999 9C18.3563 9.00001 -8.54166e-06 27.3564 0 50C8.54166e-06 72.6436 18.3563 90.9999 40.9999 90.9999ZM18.86 50.0001C18.86 37.7725 28.7724 27.8601 41 27.8601C49.2471 27.8601 56.4411 32.3694 60.2508 39.0568C59.5345 39.4005 59.04 40.1326 59.04 40.9801C59.04 42.1576 59.9945 43.1121 61.172 43.1121C61.463 43.1121 61.7405 43.0538 61.9932 42.9482C62.737 45.1632 63.14 47.5346 63.14 50.0001C63.14 56.691 60.1719 62.6887 55.4806 66.7484C50.1669 71.1869 44.8626 71.6032 43.6846 71.6565C42.5066 71.7098 42.152 71.5245 42.0506 71.0374C41.9155 70.3891 42.7365 70.0112 43.9412 69.4978C47.4588 67.9988 48.4911 67.3787 49.1946 66.7484C49.9988 66.028 50.0219 65.6551 50.0219 65.1467C50.0219 64.6383 49.7655 63.9662 48.9937 63.5724C48.4044 63.2717 47.7131 63.4411 47.4588 63.5724C43.1698 65.5731 34.3853 69.6702 33.5587 70.0526C32.732 70.4351 31.8698 70.193 31.5421 70.0241C31.1269 69.8328 30.1349 69.153 30.1966 67.7187C30.2459 66.5713 31.0911 65.9074 31.5075 65.7189C33.8691 64.6194 38.7229 62.3592 39.2455 62.1154C39.8987 61.8106 40.1639 61.1059 40.2035 60.6269C40.2431 60.1479 40.0174 59.372 39.2336 58.9603C38.6066 58.6309 37.9717 58.7857 37.7326 58.9043C34.084 60.6064 26.6936 64.0532 26.3211 64.2231C25.8554 64.4355 25.2591 64.5213 24.5646 64.2966C24.0091 64.1169 23.5869 63.686 23.4452 63.493C23.2556 63.2502 22.7142 62.4054 23.0615 61.3107C23.3392 60.4349 24.0568 59.9654 24.3808 59.8402C25.8908 59.1362 29.0448 57.6663 29.5807 57.4179C30.2506 57.1075 30.5159 56.4565 30.5627 55.9635C30.6095 55.4705 30.3786 54.6437 29.5923 54.2412C28.9633 53.9192 28.3163 54.0825 28.0714 54.2045C27.0018 54.703 24.6635 55.7929 23.8671 56.1646L23.8623 56.1668C22.8676 56.631 21.6525 57.1981 20.579 56.5385C19.7188 56.0099 19.2607 54.31 19.1392 53.5261C18.9555 52.3779 18.86 51.2001 18.86 50.0001ZM47.068 43.9321C48.2455 43.9321 49.2 42.9776 49.2 41.8001C49.2 40.6226 48.2455 39.6681 47.068 39.6681C45.8905 39.6681 44.936 40.6226 44.936 41.8001C44.936 42.9776 45.8905 43.9321 47.068 43.9321Z" fill="white"/>
</g>
<path d="M114.672 73.6C111.205 73.6 108.072 72.8222 105.272 71.2667C102.472 69.6667 100.272 67.4444 98.6721 64.6C97.0721 61.7111 96.2721 58.3778 96.2721 54.6C96.2721 50.8667 97.0944 47.5556 98.7388 44.6667C100.383 41.7778 102.628 39.5556 105.472 38C108.317 36.4444 111.494 35.6667 115.005 35.6667C118.517 35.6667 121.694 36.4444 124.539 38C127.383 39.5556 129.628 41.7778 131.272 44.6667C132.917 47.5556 133.739 50.8667 133.739 54.6C133.739 58.3333 132.894 61.6444 131.205 64.5333C129.517 67.4222 127.205 69.6667 124.272 71.2667C121.383 72.8222 118.183 73.6 114.672 73.6ZM114.672 67C116.628 67 118.45 66.5333 120.139 65.6C121.872 64.6667 123.272 63.2667 124.339 61.4C125.405 59.5333 125.939 57.2667 125.939 54.6C125.939 51.9333 125.428 49.6889 124.405 47.8667C123.383 46 122.028 44.6 120.339 43.6667C118.65 42.7333 116.828 42.2667 114.872 42.2667C112.917 42.2667 111.094 42.7333 109.405 43.6667C107.761 44.6 106.45 46 105.472 47.8667C104.494 49.6889 104.005 51.9333 104.005 54.6C104.005 58.5556 105.005 61.6222 107.005 63.8C109.05 65.9333 111.605 67 114.672 67ZM155.118 54.6667L172.052 73H161.785L148.185 57.2V73H140.585V23.6667H148.185V52.3333L161.518 36.2667H172.052L155.118 54.6667ZM185.699 42.4667V62.8C185.699 64.1778 186.01 65.1778 186.633 65.8C187.299 66.3778 188.41 66.6667 189.966 66.6667H194.633V73H188.633C185.21 73 182.588 72.2 180.766 70.6C178.944 69 178.033 66.4 178.033 62.8V42.4667H173.699V36.2667H178.033V27.1333H185.699V36.2667H194.633V42.4667H185.699ZM216.904 73.6C213.437 73.6 210.304 72.8222 207.504 71.2667C204.704 69.6667 202.504 67.4444 200.904 64.6C199.304 61.7111 198.504 58.3778 198.504 54.6C198.504 50.8667 199.326 47.5556 200.971 44.6667C202.615 41.7778 204.859 39.5556 207.704 38C210.548 36.4444 213.726 35.6667 217.237 35.6667C220.748 35.6667 223.926 36.4444 226.771 38C229.615 39.5556 231.859 41.7778 233.504 44.6667C235.148 47.5556 235.971 50.8667 235.971 54.6C235.971 58.3333 235.126 61.6444 233.437 64.5333C231.748 67.4222 229.437 69.6667 226.504 71.2667C223.615 72.8222 220.415 73.6 216.904 73.6ZM216.904 67C218.859 67 220.682 66.5333 222.371 65.6C224.104 64.6667 225.504 63.2667 226.571 61.4C227.637 59.5333 228.171 57.2667 228.171 54.6C228.171 51.9333 227.659 49.6889 226.637 47.8667C225.615 46 224.259 44.6 222.571 43.6667C220.882 42.7333 219.059 42.2667 217.104 42.2667C215.148 42.2667 213.326 42.7333 211.637 43.6667C209.993 44.6 208.682 46 207.704 47.8667C206.726 49.6889 206.237 51.9333 206.237 54.6C206.237 58.5556 207.237 61.6222 209.237 63.8C211.282 65.9333 213.837 67 216.904 67Z" fill="white"/>
<defs>
<clipPath id="clip0_1120_17457">
<rect width="82" height="82" fill="white" transform="translate(0 9)"/>
</clipPath>
</defs>
</svg>
